<?xml version="1.0" encoding="UTF-8" standalone="no"?>
<!-- Created with Inkscape (http://www.inkscape.org/) -->

<svg
   width="251.0257mm"
   height="59.645306mm"
   viewBox="0 0 948.75855 225.43108"
   version="1.1"
   id="svg1"
   xml:space="preserve"
   inkscape:version="1.3.2 (091e20e, 2023-11-25, custom)"
   sodipodi:docname="gp.svg"
   xmlns:inkscape="http://www.inkscape.org/namespaces/inkscape"
   xmlns:sodipodi="http://sodipodi.sourceforge.net/DTD/sodipodi-0.dtd"
   xmlns="http://www.w3.org/2000/svg"
   xmlns:svg="http://www.w3.org/2000/svg"><sodipodi:namedview
     id="namedview1"
     pagecolor="#505050"
     bordercolor="#eeeeee"
     borderopacity="1"
     inkscape:showpageshadow="0"
     inkscape:pageopacity="0"
     inkscape:pagecheckerboard="0"
     inkscape:deskcolor="#505050"
     inkscape:document-units="mm"
     inkscape:zoom="0.49308712"
     inkscape:cx="516.13597"
     inkscape:cy="349.83676"
     inkscape:window-width="1920"
     inkscape:window-height="1017"
     inkscape:window-x="-8"
     inkscape:window-y="-8"
     inkscape:window-maximized="1"
     inkscape:current-layer="layer1" /><defs
     id="defs1" /><g
     inkscape:label="Layer 1"
     inkscape:groupmode="layer"
     id="layer1"
     transform="translate(-96.851001,-253.04815)"><g
       inkscape:label="Layer 1"
       id="layer1-5"
       transform="matrix(1.3763736,0,0,1.3763736,79.74703,211.13105)"><path
         sodipodi:type="star"
         style="fill:#ffffff;stroke:#ffffff;stroke-width:2.965"
         id="path1"
         inkscape:flatsided="false"
         sodipodi:sides="3"
         sodipodi:cx="76.995399"
         sodipodi:cy="110.76083"
         sodipodi:r1="21.38483"
         sodipodi:r2="20.824476"
         sodipodi:arg1="1.5707963"
         sodipodi:arg2="2.6179939"
         inkscape:rounded="-1.6306401e-16"
         inkscape:randomized="0"
         d="M 76.9954,132.14566 58.960874,121.17307 58.475593,100.06842 76.9954,89.936357 95.515206,100.06842 95.029925,121.17307 Z"
         inkscape:transform-center-y="0.28017552"
         transform="translate(-38.938339,49.48765)" /><path
         sodipodi:type="star"
         style="fill:#ffffff;fill-opacity:1;stroke:#000000;stroke-width:2.965;stroke-opacity:1"
         id="path2-5"
         inkscape:flatsided="false"
         sodipodi:sides="3"
         sodipodi:cx="154.24661"
         sodipodi:cy="54.740917"
         sodipodi:r1="20.465492"
         sodipodi:r2="19.929228"
         sodipodi:arg1="1.5707963"
         sodipodi:arg2="2.6179939"
         inkscape:rounded="-1.6306401e-16"
         inkscape:randomized="0"
         d="m 154.24661,75.206409 -17.25922,-10.500878 -0.46441,-20.197359 17.72363,-9.696483 17.72364,9.696482 -0.46442,20.197361 z"
         inkscape:transform-center-y="0.22900166"
         transform="matrix(0.85406255,0,0,0.85406255,-93.99673,113.30094)" /><path
         sodipodi:type="star"
         style="fill:#ffffff;fill-opacity:1;stroke:#ffffff;stroke-width:2.965"
         id="path1-7"
         inkscape:flatsided="false"
         sodipodi:sides="3"
         sodipodi:cx="76.995399"
         sodipodi:cy="110.76083"
         sodipodi:r1="21.38483"
         sodipodi:r2="20.824476"
         sodipodi:arg1="1.5707963"
         sodipodi:arg2="2.6179939"
         inkscape:rounded="-1.6306401e-16"
         inkscape:randomized="0"
         d="M 76.9954,132.14566 58.960874,121.17307 58.475593,100.06842 76.9954,89.936357 95.515206,100.06842 95.029925,121.17307 Z"
         inkscape:transform-center-y="0.28017552"
         transform="translate(25.909964,-46.604958)" /><path
         sodipodi:type="star"
         style="fill:#ffffff;fill-opacity:1;stroke:#000000;stroke-width:2.965;stroke-opacity:1"
         id="path2"
         inkscape:flatsided="false"
         sodipodi:sides="3"
         sodipodi:cx="154.24661"
         sodipodi:cy="54.740917"
         sodipodi:r1="20.465492"
         sodipodi:r2="19.929228"
         sodipodi:arg1="1.5707963"
         sodipodi:arg2="2.6179939"
         inkscape:rounded="-1.6306401e-16"
         inkscape:randomized="0"
         d="m 154.24661,75.206409 -17.25922,-10.500878 -0.46441,-20.197359 17.72363,-9.696483 17.72364,9.696482 -0.46442,20.197361 z"
         inkscape:transform-center-y="0.22900166"
         transform="matrix(0.85406255,0,0,0.85406255,-28.872184,18.021762)" /><path
         sodipodi:type="star"
         style="fill:#ffffff;fill-opacity:0;stroke:#ffffff;stroke-width:2.96532;stroke-dasharray:none;stroke-opacity:1"
         id="path3"
         inkscape:flatsided="false"
         sodipodi:sides="3"
         sodipodi:cx="142.22408"
         sodipodi:cy="112.03982"
         sodipodi:r1="21.511436"
         sodipodi:r2="20.947762"
         sodipodi:arg1="1.5707963"
         sodipodi:arg2="2.6179939"
         inkscape:rounded="-1.6306401e-16"
         inkscape:randomized="0"
         d="m 142.22408,133.55125 -18.1413,-11.03755 -0.48816,-21.2296 18.62946,-10.192044 18.62945,10.192044 -0.48816,21.2296 z"
         inkscape:transform-center-x="6.2486681e-06"
         inkscape:transform-center-y="0.41695556"
         transform="matrix(1.4794372,0,0,1.4794372,-107.1041,-101.80992)" /><path
         sodipodi:type="star"
         style="fill:#ffffff;fill-opacity:0;stroke:#ffffff;stroke-width:2.3986;stroke-dasharray:none;stroke-opacity:1"
         id="path3-2"
         inkscape:flatsided="false"
         sodipodi:sides="3"
         sodipodi:cx="142.22408"
         sodipodi:cy="112.03982"
         sodipodi:r1="21.511436"
         sodipodi:r2="20.947762"
         sodipodi:arg1="1.5707963"
         sodipodi:arg2="2.6179939"
         inkscape:rounded="-1.6306401e-16"
         inkscape:randomized="0"
         d="m 142.22408,133.55125 -18.1413,-11.03755 -0.48816,-21.2296 18.62946,-10.192044 18.62945,10.192044 -0.48816,21.2296 z"
         inkscape:transform-center-x="-1.0759571e-06"
         inkscape:transform-center-y="0.36524974"
         transform="matrix(1.2959752,0,0,1.2959752,-146.17314,14.920331)" /><path
         sodipodi:type="star"
         style="fill:#ffffff;stroke:#ffffff;stroke-width:2.965;stroke-opacity:1"
         id="path1-70"
         inkscape:flatsided="false"
         sodipodi:sides="3"
         sodipodi:cx="76.995399"
         sodipodi:cy="110.76083"
         sodipodi:r1="21.38483"
         sodipodi:r2="20.824476"
         sodipodi:arg1="1.5707963"
         sodipodi:arg2="2.6179939"
         inkscape:rounded="-1.6306401e-16"
         inkscape:randomized="0"
         d="M 76.9954,132.14566 58.960874,121.17307 58.475593,100.06842 76.9954,89.936357 95.515206,100.06842 95.029925,121.17307 Z"
         inkscape:transform-center-y="0.26532923"
         transform="matrix(0.9654423,0,0,0.94701474,98.799845,56.102052)" /><path
         sodipodi:type="star"
         style="fill:#ffffff;fill-opacity:1;stroke:#000000;stroke-width:2.96465;stroke-dasharray:none;stroke-opacity:1"
         id="path2-5-2"
         inkscape:flatsided="false"
         sodipodi:sides="3"
         sodipodi:cx="154.24661"
         sodipodi:cy="54.740917"
         sodipodi:r1="20.465492"
         sodipodi:r2="19.929228"
         sodipodi:arg1="1.5707963"
         sodipodi:arg2="2.6179939"
         inkscape:rounded="-1.6306401e-16"
         inkscape:randomized="0"
         d="m 154.24661,75.206409 -17.25922,-10.500878 -0.46441,-20.197359 17.72363,-9.696483 17.72364,9.696482 -0.46442,20.197361 z"
         inkscape:transform-center-y="0.21686386"
         transform="matrix(0.82454811,0,0,0.80880982,45.644146,116.77081)" /><path
         sodipodi:type="star"
         style="fill:#000000;fill-opacity:0;stroke:#ffffff;stroke-width:2.39897;stroke-dasharray:none;stroke-opacity:1"
         id="path3-2-1"
         inkscape:flatsided="false"
         sodipodi:sides="3"
         sodipodi:cx="142.22408"
         sodipodi:cy="112.03982"
         sodipodi:r1="21.511436"
         sodipodi:r2="20.947762"
         sodipodi:arg1="1.5707963"
         sodipodi:arg2="2.6179939"
         inkscape:rounded="-1.6306401e-16"
         inkscape:randomized="0"
         d="m 142.22408,133.55125 -18.1413,-11.03755 -0.48816,-21.2296 18.62946,-10.192044 18.62945,10.192044 -0.48816,21.2296 z"
         inkscape:transform-center-x="-3.9082888e-06"
         inkscape:transform-center-y="0.3458946"
         transform="matrix(1.2511893,0,0,1.2273076,-4.7291644,23.405258)" /><g
         id="path4"
         inkscape:transform-center-x="1.2471696e-06"
         inkscape:transform-center-y="0.60400445"
         transform="translate(10.239625,85.420946)"
         style="stroke-width:4.387;stroke-dasharray:none"><path
           style="color:#000000;fill:#ffffff;fill-opacity:0;stroke-width:4.387;stroke-dasharray:none"
           d="M 98.994088,107.49296 60.115376,83.838315 59.069207,38.341043 98.994088,16.498413 138.91897,38.34104 137.8728,83.838317 Z"
           id="path5" /><path
           style="color:#000000;fill:#ffffff;stroke-width:4.387;stroke-dasharray:none"
           d="M 64.486383,-8.8980237 46.093338,18.956964 25.975122,46.946624 53.308691,62.219065 72.374123,38.891626 96.445843,10.629738 Z M 66.348131,-4.0144674 91.54841,10.845481 69.928885,36.274153 52.851955,56.422557 33.423508,44.276512 48.743889,21.722553 Z"
           id="path6"
           sodipodi:nodetypes="cccccccccccccc" /></g><rect
         style="fill:#ffffff;fill-opacity:0;stroke:#ffffff;stroke-width:2.78414;stroke-dasharray:none;stroke-opacity:1"
         id="rect9"
         width="83.347382"
         height="24.743244"
         x="64.59153"
         y="148.33759" /></g><g
       id="text2"
       style="font-size:192px;font-family:Arial;-inkscape-font-specification:Arial;letter-spacing:15px;fill:#ffffff;stroke:#ffffff;stroke-width:11.2063"
       inkscape:label="text2"
       aria-label="GridpipE"
       transform="matrix(0.83419733,0,0,0.83419733,231.06498,65.798859)"><path
         d="m 232.58798,396.56915 v -16.125 l 58.21875,-0.0937 v 51 q -13.40625,10.6875 -27.65625,16.125 -14.25,5.34375 -29.25,5.34375 -20.25,0 -36.84375,-8.625 -16.5,-8.71875 -24.9375,-25.125 -8.4375,-16.40625 -8.4375,-36.65625 0,-20.0625 8.34375,-37.40625 8.4375,-17.4375 24.1875,-25.875 15.75,-8.4375 36.28125,-8.4375 14.90625,0 26.90625,4.875 12.09375,4.78125 18.9375,13.40625 6.84375,8.625 10.40625,22.5 l -16.40625,4.5 q -3.09375,-10.5 -7.6875,-16.5 -4.59375,-6 -13.125,-9.5625 -8.53125,-3.65625 -18.9375,-3.65625 -12.46875,0 -21.5625,3.84375 -9.09375,3.75 -14.71875,9.9375 -5.53125,6.1875 -8.625,13.59375 -5.25,12.75 -5.25,27.65625 0,18.375 6.28125,30.75 6.375,12.375 18.46875,18.375 12.09375,6 25.6875,6 11.8125,0 23.0625,-4.5 11.25,-4.59375 17.0625,-9.75 V 396.5692 Z m 97.6875,53.90625 v -99.5625 h 15.1875 v 15.09375 q 5.8125,-10.59375 10.6875,-13.96875 4.96875,-3.375 10.875,-3.375 8.53125,0 17.34375,5.4375 l -5.8125,15.65625 q -6.1875,-3.65625 -12.375,-3.65625 -5.53125,0 -9.9375,3.375 -4.40625,3.28125 -6.28125,9.1875 -2.8125,9 -2.8125,19.6875 v 52.125 z M 409.49423,332.44415 V 313.0379 h 16.875 v 19.40625 z m 0,118.03125 v -99.5625 h 16.875 v 99.5625 z"
         id="path34" /><path
         style="font-style:italic;font-stretch:condensed;font-family:Sans;-inkscape-font-specification:'Sans, Italic Condensed';letter-spacing:0px"
         d="m 572.33798,304.6004 -33.75,145.875 h -17.625 l 2.53125,-10.96875 q -11.90625,8.15625 -19.21875,10.96875 -7.21875,2.90625 -15.75,2.90625 -14.8125,0 -23.53125,-9.375 -8.625,-9.375 -8.625,-27.28125 0,-15.09375 4.6875,-28.5 4.6875,-13.5 12.75,-23.625 7.96875,-10.03125 18.84375,-15.84375 10.875,-5.90625 23.0625,-5.90625 8.34375,0 15.375,1.78125 7.03125,1.78125 13.125,5.34375 l 10.5,-45.375 z m -31.5,60 q -6.28125,-3.28125 -12.375,-4.78125 -6,-1.59375 -12.84375,-1.59375 -9.75,0 -17.4375,4.6875 -7.59375,4.6875 -13.03125,12.84375 -4.96875,7.40625 -7.6875,17.8125 -2.625,10.40625 -2.625,20.15625 0,11.4375 4.875,17.53125 4.96875,6 16.03125,6 7.875,0 16.03125,-3.9375 8.25,-3.9375 15.1875,-8.625 z"
         id="path35" /><path
         style="font-style:italic;font-family:Sans;-inkscape-font-specification:'Sans, Italic';letter-spacing:0px"
         d="m 657.68173,378.8504 q 0,15.5625 -4.875,29.25 -4.78125,13.6875 -12.75,23.25 -8.0625,9.84375 -18.75,15.5625 -10.6875,5.625 -22.78125,5.625 -8.4375,0 -15.5625,-1.96875 -7.03125,-1.875 -12.84375,-5.53125 l -10.125,44.0625 h -17.625 l 33.09375,-143.34375 h 17.625 l -2.53125,10.96875 q 8.71875,-6.09375 17.15625,-9.9375 8.4375,-3.9375 18.65625,-3.9375 15.28125,0 23.25,9.46875 8.0625,9.46875 8.0625,26.53125 z m -18.46875,3.375 q 0,-11.15625 -4.875,-17.15625 -4.875,-6.09375 -15.5625,-6.09375 -7.78125,0 -16.125,3.84375 -8.34375,3.84375 -15.5625,8.71875 l -13.6875,59.34375 q 6.09375,3.28125 11.625,4.875 5.53125,1.59375 13.40625,1.59375 9.65625,0 17.34375,-4.6875 7.78125,-4.6875 12.84375,-12.1875 5.34375,-7.875 7.96875,-17.53125 2.625,-9.65625 2.625,-20.71875 z"
         id="path36" /><path
         d="M 686.40048,332.44415 V 313.0379 h 16.875 v 19.40625 z m 0,118.03125 v -99.5625 h 16.875 v 99.5625 z m 57.5625,38.15625 V 350.9129 h 15.375 v 12.9375 q 5.4375,-7.59375 12.28125,-11.34375 6.84375,-3.84375 16.59375,-3.84375 12.75,0 22.5,6.5625 9.75,6.5625 14.71875,18.5625 4.96875,11.90625 4.96875,26.15625 0,15.28125 -5.53125,27.5625 -5.4375,12.1875 -15.9375,18.75 -10.40625,6.46875 -21.9375,6.46875 -8.4375,0 -15.1875,-3.5625 -6.65625,-3.5625 -10.96875,-9 v 48.46875 z m 15.28125,-87.375 q 0,19.21875 7.78125,28.40625 7.78125,9.1875 18.84375,9.1875 11.25,0 19.21875,-9.46875 8.0625,-9.5625 8.0625,-29.53125 0,-19.03125 -7.875,-28.5 -7.78125,-9.46875 -18.65625,-9.46875 -10.78125,0 -19.125,10.125 -8.25,10.03125 -8.25,29.25 z M 868.27548,450.4754 V 313.0379 h 99.375 v 16.21875 h -81.1875 v 42.09375 h 76.03125 v 16.125 h -76.03125 v 46.78125 h 84.375 v 16.21875 z"
         id="path37" /></g></g></svg>
